<?xml version="1.0" encoding="utf-8"?>
<!-- Generator: Adobe Illustrator 24.0.2, SVG Export Plug-In . SVG Version: 6.00 Build 0)  -->
<svg version="1.1" id="Layer_1" xmlns="http://www.w3.org/2000/svg" xmlns:xlink="http://www.w3.org/1999/xlink" x="0px" y="0px"
	 viewBox="0 0 576 297" style="enable-background:new 0 0 576 297;" xml:space="preserve">
<style type="text/css">
	.st0{fill:#FFFFFF;}
	.st1{fill-rule:evenodd;clip-rule:evenodd;}
	.st2{stroke:#000000;stroke-miterlimit:10;}
	.st3{stroke:#000000;stroke-width:0.493;stroke-miterlimit:10;}
	.st4{stroke:#000000;stroke-width:0.3014;stroke-miterlimit:10;}
</style>
<circle cx="288" cy="1075.2" r="387.9"/>
<g>
	<path class="st0" d="M1209.8,120.7c-0.1-0.8-0.2-0.4,0-0.2c16.6,15.9,34.2,30.3,56.4,37.9c42.2,14.5,86.2-17.6,84.5-61.7
		c-1.5-40.1-38.2-67.6-78.1-58.5c-20.1,4.6-37.6,14.4-52.7,28.3c-8.7,8-16.6,16.9-25.5,24.7c-13.8,12-27.8,23.8-42.6,34.6
		c-7,5.1-15.6,8.4-23.9,11c-17,5.2-33.2-0.6-43.5-14.4c-10.3-13.8-11.7-31-3.5-44.1c9.2-14.9,26.9-23.1,43.7-20
		c14.4,2.6,27.5,8,38.3,18.2c5.9,5.6,12.1,11,17.8,16.1c5-4.8,9.8-9.5,14.9-14.4c-21.7-23.4-47.1-40.1-80-42.1
		c-24.1-1.5-47.7,14.6-57.8,39.3c-10,24.5-5.9,47.1,12.2,66.2c18.7,19.7,41.9,25.2,67.7,16.6c14.7-4.9,27.9-12.8,39.4-23.2
		c18.3-16.5,36.4-33.3,54.2-50.4c13.6-13.1,28.5-23.4,47.7-26.5c26.9-4.4,51.7,17.7,48.8,43.6c-2.6,23.7-24.2,40-47.7,36.1
		c-12.5-2.1-23.3-7.9-33.4-15.2c-7.5-5.5-14.8-11.3-23-17.5C1219.1,110.2,1214.7,115.2,1209.8,120.7z"/>
	<path class="st1" d="M1223.7,105.1c-4.6,5.1-9,10.1-13.9,15.6c-0.1-0.8-0.2-0.4,0-0.2c16.6,15.9,34.2,30.3,56.4,37.9
		c42.2,14.5,86.2-17.6,84.5-61.7c-1.5-40.1-38.2-67.6-78.1-58.5c-20.1,4.6-37.6,14.4-52.7,28.3c-8.7,8-16.6,16.9-25.5,24.7
		c-13.8,12-27.8,23.8-42.6,34.6c-7,5.1-15.6,8.4-23.9,11c-17,5.2-33.2-0.6-43.5-14.4c-10.3-13.8-11.7-31-3.5-44.1
		c9.2-14.9,26.9-23.1,43.7-20c14.4,2.6,27.5,8,38.3,18.2c5.9,5.6,12.1,11,17.8,16.1c5-4.8,9.8-9.5,14.9-14.4
		c-21.7-23.4-47.1-40.1-80-42.1c-24.1-1.5-47.7,14.6-57.8,39.3c-10,24.5-5.9,47.1,12.2,66.2c18.7,19.7,41.9,25.2,67.7,16.6
		c14.7-4.9,27.9-12.8,39.4-23.2c18.3-16.5,36.4-33.3,54.2-50.4c13.6-13.1,28.5-23.4,47.7-26.5c26.9-4.4,51.7,17.7,48.8,43.6
		c-2.6,23.7-24.2,40-47.7,36.1c-12.5-2.1-23.3-7.9-33.4-15.2C1239.1,117.2,1231.9,111.4,1223.7,105.1z"/>
</g>
<g>
	<path class="st2" d="M303.2,135.4C303.2,135.4,303.2,135.4,303.2,135.4c-0.1,0.2-0.2,0.3-0.1,0.4c0,0,0,0,0,0c0,0,0,0,0,0
		c0,0,0,0,0,0c0,0,0,0,0,0c0,0,0,0,0-0.1c0,0,0,0,0-0.1c0,0,0-0.1,0-0.1C303.1,135.4,303.2,135.4,303.2,135.4
		C303.2,135.4,303.2,135.4,303.2,135.4C303.2,135.4,303.2,135.4,303.2,135.4z"/>
	<path class="st2" d="M407.6,65.1c-2.6,0.9-5.1,1.8-7.6,2.8c-0.9,0.4-1.8,0.8-2.7,1.1c-1.6,0.6-3.1,1.3-4.7,1.9
		c-1.2,0.5-2.4,1.1-3.5,1.6c-1.2,0.6-2.5,1.1-3.7,1.7c-1.3,0.6-2.5,1.3-3.7,1.9c-1.1,0.6-2.2,1.1-3.3,1.7c-1.4,0.7-2.7,1.5-4,2.2
		c-1,0.5-1.9,1.1-2.9,1.6c-1.4,0.8-2.7,1.6-4.1,2.4c-0.9,0.5-1.8,1-2.7,1.6c-1.4,0.8-2.7,1.7-4,2.6c-0.9,0.6-1.7,1.1-2.6,1.6
		c-1.4,0.9-2.8,1.9-4.2,2.9c-0.7,0.5-1.5,1-2.2,1.5c-1.5,1.1-3,2.1-4.4,3.2c-0.6,0.5-1.3,0.9-1.9,1.4c-1.6,1.2-3.1,2.4-4.7,3.6
		c-0.5,0.4-1,0.8-1.6,1.2c-1.6,1.3-3.2,2.6-4.8,3.9c-0.4,0.4-0.9,0.7-1.3,1.1c-1.7,1.4-3.4,2.8-5.1,4.3c-0.3,0.3-0.6,0.5-1,0.8
		c-1.8,1.5-3.6,3.1-5.4,4.7c-0.2,0.2-0.4,0.3-0.6,0.5c-2,1.7-3.9,3.5-5.8,5.2c0,0,0,0,0,0c-3.9,3.6-7.8,7.2-11.6,10.8
		c-0.1-0.1-0.1-0.1-0.2-0.2c0,0.2-0.1,0.3-0.1,0.5c0,0,0,0,0,0c0,0,0,0,0,0c0,0,0-0.1,0.1-0.1c0.1-0.1,0.1-0.1,0.2-0.2
		c0.8,0.9,1.6,1.8,2.5,2.8c8,9,15.5,17.3,23.1,25.8c15.1-11.6,28.6-22.3,42.6-32.5c18.6-13.5,38.7-24.3,61.8-28.1
		c43.5-7.2,83.3,23,88.2,66.8c5.4,48-40.6,88.8-90.4,80.7c-35.5-5.8-63-24.8-88.3-49C310,170,276.5,139,242.7,108.4
		c-21.2-19.2-45.8-33.9-73-42.9c-47.9-15.9-90.9-5.7-125.4,30.8c-33.4,35.3-41,77.1-22.5,122.6c18.6,45.8,62.3,75.6,107,72.8
		c61-3.8,108-34.6,148.2-78c-9.3-9.1-18.3-17.8-27.6-26.7c-10.6,9.6-22,19.5-32.9,29.9c-20,19-44.2,28.9-70.8,33.7
		c-31.1,5.6-63.9-9.6-81-37.1c-3.1-4.9-5.3-10.1-7-15.6h72.3v-45.4H59.7c2.7-7.2,6.5-14.1,11.4-20.7c19-25.5,49.1-36.3,80.5-26.7
		c15.4,4.7,31.4,10.9,44.3,20.3c27.3,20,53.2,41.9,78.8,64.1c16.5,14.3,31.1,30.8,47.2,45.7c27.9,25.9,60.3,43.9,97.5,52.4
		c73.9,16.9,141.8-34.1,144.6-108.3C567.2,97.7,485.7,38.2,407.6,65.1z"/>
</g>
<rect x="1074.2" y="86.8" class="st1" width="42" height="24.5"/>
<g>
	<path d="M594.6,364L594.6,364c0.7-0.9,1.7-1.2,2.7-1.2c1.9,0,3.2,1,3.2,2.4c0,1.5-1.4,2.3-2.9,2.3c-1,0-2.1-0.3-2.8-1.3h-0.1
		 M597.4,363.7c-1.2,0-1.8,0.6-2.2,1.5c0.3,0.7,1.1,1.2,2.2,1.2c1,0,1.9-0.4,1.9-1.3C599.3,364.2,598.4,363.7,597.4,363.7z"/>
</g>
<ellipse cx="600.2" cy="372.8" rx="3.9" ry="2.5"/>
<g>
	<path class="st0" d="M303,1036C303.1,1036,303.1,1036,303,1036C303.1,1035.9,303.1,1035.9,303,1036c0-0.1,0.1-0.1,0.1-0.2
		c0,0,0-0.1,0-0.1c0,0,0-0.1,0-0.1c0,0,0,0,0,0C303.1,1035.7,303,1035.9,303,1036C303,1036,303,1036,303,1036
		C303,1036,303,1036,303,1036C303,1036,303,1036,303,1036z"/>
	<path class="st0" d="M407.6,965.3c-2.6,0.9-5.1,1.8-7.6,2.8c-0.9,0.4-1.8,0.8-2.7,1.1c-1.6,0.6-3.1,1.3-4.7,1.9
		c-1.2,0.5-2.4,1.1-3.5,1.6c-1.2,0.6-2.5,1.1-3.7,1.7c-1.3,0.6-2.5,1.3-3.7,1.9c-1.1,0.6-2.2,1.1-3.3,1.7c-1.4,0.7-2.7,1.5-4,2.2
		c-1,0.5-1.9,1.1-2.9,1.6c-1.4,0.8-2.7,1.6-4.1,2.4c-0.9,0.5-1.8,1-2.7,1.6c-1.4,0.8-2.7,1.7-4,2.6c-0.9,0.6-1.7,1.1-2.6,1.6
		c-1.4,0.9-2.8,1.9-4.2,2.9c-0.7,0.5-1.5,1-2.2,1.5c-1.5,1.1-3,2.1-4.4,3.2c-0.6,0.5-1.3,0.9-1.9,1.4c-1.6,1.2-3.1,2.4-4.7,3.6
		c-0.5,0.4-1,0.8-1.6,1.2c-1.6,1.3-3.2,2.6-4.8,3.9c-0.4,0.4-0.9,0.7-1.3,1.1c-1.7,1.4-3.4,2.8-5.1,4.3c-0.3,0.3-0.6,0.5-1,0.8
		c-1.8,1.5-3.6,3.1-5.4,4.7c-0.2,0.2-0.4,0.3-0.6,0.5c-2,1.7-3.9,3.5-5.8,5.2c0,0,0,0,0,0c-3.9,3.6-7.8,7.2-11.6,10.8
		c-0.1-0.1-0.1-0.1-0.2-0.2c0,0.2-0.1,0.3-0.1,0.5c0,0,0-0.1,0.1-0.1c0.1-0.1,0.1-0.1,0.2-0.2c0.8,0.9,1.6,1.8,2.5,2.8
		c8,9,15.5,17.3,23.1,25.8c15.1-11.6,28.6-22.3,42.6-32.5c18.6-13.5,38.7-24.3,61.8-28.1c43.5-7.2,83.3,23,88.2,66.8
		c5.4,48-40.6,88.8-90.4,80.7c-35.5-5.8-63-24.8-88.3-49c-32.9-31.6-66.4-62.6-100.3-93.3c-21.2-19.2-45.8-33.9-73-42.9
		c-47.9-15.9-90.9-5.7-125.4,30.8c-33.4,35.3-41,77.1-22.5,122.6c18.6,45.8,62.3,75.6,107,72.8c61-3.8,108-34.6,148.2-78
		c-9.3-9.1-18.3-17.8-27.6-26.7c-10.6,9.6-22,19.5-32.9,29.9c-20,19-44.2,28.9-70.8,33.7c-31.1,5.6-63.9-9.6-81-37.1
		c-3-4.8-5.2-9.9-6.8-15.2h29.4v-0.2c12.2-1.7,21.9-12,20.5-23.8c-1.5-12.6-13.3-21.4-26.4-19.8H59.7l0.1-1.9
		c2.7-7.2,6.5-14.1,11.4-20.7c19-25.5,49.1-36.3,80.5-26.7c15.4,4.7,31.4,10.9,44.3,20.3c27.3,20,53.2,41.9,78.8,64.1
		c16.5,14.3,31.1,30.8,47.2,45.7c27.9,25.9,60.3,43.9,97.5,52.4c73.9,16.9,141.8-34.1,144.6-108.3
		C567.2,997.9,485.7,938.4,407.6,965.3z"/>
</g>
<g>
	<path class="st2" d="M303.2,1733.5C303.2,1733.5,303.2,1733.5,303.2,1733.5c-0.1,0.2-0.2,0.3-0.1,0.4c0,0,0,0,0,0c0,0,0,0,0,0
		c0,0,0,0,0,0c0,0,0,0,0,0c0,0,0,0,0-0.1c0,0,0,0,0-0.1c0,0,0-0.1,0-0.1C303.1,1733.6,303.2,1733.5,303.2,1733.5
		C303.2,1733.5,303.2,1733.5,303.2,1733.5C303.2,1733.5,303.2,1733.5,303.2,1733.5z"/>
	<path class="st2" d="M407.6,1663.2c-2.6,0.9-5.1,1.8-7.6,2.8c-0.9,0.4-1.8,0.8-2.7,1.1c-1.6,0.6-3.1,1.3-4.7,1.9
		c-1.2,0.5-2.4,1.1-3.5,1.6c-1.2,0.6-2.5,1.1-3.7,1.7c-1.3,0.6-2.5,1.3-3.7,1.9c-1.1,0.6-2.2,1.1-3.3,1.7c-1.4,0.7-2.7,1.5-4,2.2
		c-1,0.5-1.9,1-2.9,1.6c-1.4,0.8-2.7,1.6-4.1,2.4c-0.9,0.5-1.8,1-2.7,1.6c-1.4,0.8-2.7,1.7-4,2.6c-0.9,0.6-1.7,1.1-2.6,1.6
		c-1.4,0.9-2.8,1.9-4.2,2.9c-0.7,0.5-1.5,1-2.2,1.5c-1.5,1.1-3,2.1-4.4,3.2c-0.6,0.5-1.3,0.9-1.9,1.4c-1.6,1.2-3.1,2.4-4.7,3.6
		c-0.5,0.4-1,0.8-1.6,1.2c-1.6,1.3-3.2,2.6-4.8,3.9c-0.4,0.4-0.9,0.7-1.3,1.1c-1.7,1.4-3.4,2.8-5.1,4.3c-0.3,0.3-0.6,0.5-1,0.8
		c-1.8,1.5-3.6,3.1-5.4,4.7c-0.2,0.2-0.4,0.3-0.6,0.5c-2,1.7-3.9,3.5-5.8,5.2c0,0,0,0,0,0c-3.9,3.6-7.8,7.2-11.6,10.8
		c-0.1-0.1-0.1-0.1-0.2-0.2c0,0.2-0.1,0.3-0.1,0.5c0,0,0,0,0,0c0,0,0,0,0,0c0,0,0-0.1,0.1-0.1c0.1-0.1,0.1-0.1,0.2-0.2
		c0.8,0.9,1.6,1.8,2.5,2.8c8,9,15.5,17.3,23.1,25.8c15.1-11.6,28.6-22.3,42.6-32.5c18.6-13.5,38.7-24.3,61.8-28.1
		c43.5-7.2,83.3,23,88.2,66.8c5.4,48-40.6,88.8-90.4,80.7c-35.5-5.8-63-24.8-88.3-49c-32.9-31.6-66.4-62.6-100.3-93.3
		c-21.2-19.2-45.8-33.9-73-42.9c-47.9-15.9-90.9-5.7-125.4,30.8c-33.4,35.3-41,77.1-22.5,122.6c18.6,45.8,62.3,75.6,107,72.8
		c61-3.8,108-34.6,148.2-78c-9.3-9.1-18.3-17.8-27.6-26.7c-10.6,9.6-22,19.5-32.9,29.9c-20,19-44.2,28.9-70.8,33.7
		c-31.1,5.6-63.9-9.6-81-37.1c-3.1-4.9-5.3-10.1-7-15.6l2.1-45.4c2.7-7.2,6.5-14.1,11.4-20.7c19-25.5,49.1-36.3,80.5-26.7
		c15.4,4.7,31.4,10.9,44.3,20.3c27.3,20,53.2,41.9,78.8,64.1c16.5,14.3,31.1,30.8,47.2,45.7c27.9,25.8,60.3,43.9,97.5,52.4
		c73.9,16.9,141.8-34.1,144.6-108.3C567.2,1695.9,485.7,1636.3,407.6,1663.2z"/>
</g>
<path class="st3" d="M107.6,1772.3c-1.5-12.6-13.3-21.4-26.4-19.8H47.7v43.8h39.4v-0.2C99.3,1794.4,109,1784.1,107.6,1772.3z"/>
<g>
	<g>
		<path class="st2" d="M1193.3,2028.6C1193.3,2028.6,1193.3,2028.6,1193.3,2028.6c0.1,0,0.1,0,0.1,0c0,0,0.1,0,0.1,0c0,0,0,0,0.1,0
			c0,0,0.1,0,0.1,0c0,0,0,0,0,0c0,0,0,0,0,0c0,0,0,0,0,0c0,0,0,0,0,0C1193.7,2028.4,1193.5,2028.5,1193.3,2028.6
			C1193.3,2028.6,1193.3,2028.6,1193.3,2028.6C1193.3,2028.6,1193.3,2028.6,1193.3,2028.6z"/>
		<path class="st2" d="M1237.3,2289.4c74.2-2.8,125.2-70.7,108.3-144.6c-8.5-37.3-26.6-69.6-52.4-97.5
			c-14.9-16.1-31.4-30.7-45.7-47.2c-22.2-25.6-44.2-51.5-64.1-78.8c-9.4-12.9-15.5-28.8-20.3-44.3c-9.6-31.4,1.2-61.5,26.7-80.5
			c6.6-4.9,13.5-8.7,20.7-11.4l45.4-2.1c5.4,1.6,10.7,3.9,15.6,7c27.5,17.1,42.7,49.8,37.1,81c-4.8,26.6-14.7,50.9-33.7,70.8
			c-10.4,10.9-20.3,22.3-29.9,32.9c9,9.3,17.7,18.2,26.7,27.6c43.4-40.2,74.2-87.2,78-148.2c2.8-44.7-27-88.3-72.8-107
			c-45.4-18.5-87.3-10.9-122.6,22.5c-36.5,34.6-46.7,77.5-30.8,125.4c9,27.2,23.7,51.7,42.9,73c30.6,33.9,61.7,67.4,93.3,100.3
			c24.2,25.3,43.3,52.8,49,88.3c8.1,49.8-32.7,95.8-80.7,90.4c-43.8-4.9-74-44.8-66.8-88.2c3.8-23.1,14.6-43.1,28.1-61.8
			c10.1-14,20.9-27.5,32.5-42.6c-8.6-7.7-16.9-15.1-25.8-23.1c-0.9-0.8-1.8-1.6-2.8-2.5c0.1-0.1,0.1-0.1,0.2-0.2c0,0,0,0,0.1-0.1
			c0,0,0,0,0,0c0,0,0,0,0,0c-0.1,0-0.3,0-0.5,0.1c0.1,0.1,0.1,0.1,0.2,0.2c-3.7,3.8-7.3,7.7-10.8,11.6c0,0,0,0,0,0
			c-1.8,1.9-3.5,3.9-5.2,5.8c-0.2,0.2-0.3,0.4-0.5,0.6c-1.6,1.8-3.1,3.6-4.7,5.4c-0.3,0.3-0.5,0.6-0.8,1c-1.4,1.7-2.9,3.4-4.3,5.1
			c-0.4,0.4-0.7,0.9-1.1,1.3c-1.3,1.6-2.6,3.2-3.9,4.8c-0.4,0.5-0.8,1-1.2,1.6c-1.2,1.6-2.4,3.1-3.6,4.7c-0.5,0.6-0.9,1.3-1.4,1.9
			c-1.1,1.5-2.2,3-3.2,4.4c-0.5,0.7-1,1.5-1.5,2.2c-1,1.4-2,2.8-2.9,4.2c-0.6,0.8-1.1,1.7-1.6,2.6c-0.9,1.3-1.8,2.7-2.6,4
			c-0.5,0.9-1.1,1.8-1.6,2.7c-0.8,1.4-1.7,2.7-2.4,4.1c-0.5,1-1.1,1.9-1.6,2.9c-0.7,1.3-1.5,2.7-2.2,4c-0.6,1.1-1.1,2.2-1.7,3.3
			c-0.6,1.2-1.3,2.5-1.9,3.7c-0.6,1.2-1.1,2.4-1.7,3.7c-0.5,1.2-1.1,2.3-1.6,3.5c-0.7,1.5-1.3,3.1-1.9,4.7c-0.4,0.9-0.8,1.8-1.1,2.7
			c-1,2.5-1.9,5-2.8,7.6C1096.2,2211.1,1155.7,2292.6,1237.3,2289.4z"/>
	</g>
	<path class="st4" d="M1232.1,1833c-12.9-1.5-21.7-13.8-19.7-27.2h43.6C1257.9,1820.9,1246,1834.6,1232.1,1833z"/>
	
		<rect x="1214.6" y="1770.9" transform="matrix(-4.487451e-11 1 -1 -4.487451e-11 3027.0474 558.5564)" class="st3" width="39.4" height="43.8"/>
</g>
<image style="overflow:visible;" width="2000" height="2000" xlink:href="../../../2000px-RegisteredTM.svg.png"  transform="matrix(1 0 0 1 2388.968 -624.7079)">
</image>
<g>
	<path class="st0" d="M547.8,934.9c0-9,7.3-16.3,16.3-16.3c9,0,16.3,7.3,16.3,16.3c0,9-7.3,16.3-16.3,16.3
		C555.1,951.2,547.8,943.9,547.8,934.9z M577.1,934.9c0-7.2-5.8-13-13-13c-7.2,0-13,5.8-13,13c0,7.2,5.8,13,13,13
		C571.3,947.9,577.1,942.1,577.1,934.9z"/>
	<path class="st0" d="M567,935.1c0.3,0.1,0.6,0.2,0.9,0.4c0.5,0.3,0.9,0.7,1.3,1.2c0.3,0.4,0.6,0.9,0.8,1.4c0.8,1.6,1.6,3.3,2.4,4.9
		c0,0,0,0.1,0,0.1c0,0-0.1,0-0.1,0c-1.5,0-3,0-4.5,0c-0.1,0-0.1,0-0.1-0.1c-0.7-1.4-1.4-2.8-2.1-4.3c-0.2-0.4-0.5-0.9-0.8-1.2
		c-0.4-0.5-1-0.8-1.7-0.9c-0.5,0-1,0-1.5,0c-0.1,0-0.2,0-0.3,0c0,2.2,0,4.3,0,6.4c-1.5,0-2.9,0-4.4,0c0-5.7,0-11.4,0-17c0,0,0,0,0,0
		c2.3,0,4.7,0,7,0c1,0,2,0.1,2.9,0.4c0.7,0.2,1.3,0.5,1.9,1c0.6,0.5,0.9,1.1,1.1,1.9c0.3,1,0.3,2.1-0.1,3.1
		c-0.3,0.9-0.8,1.6-1.6,2.1C567.9,934.7,567.5,934.9,567,935.1C567,935,567,935,567,935.1z M561.4,929.2c0,1.5,0,2.9,0,4.4
		c0,0,0,0,0,0c0.7,0,1.3,0,2,0c0.4,0,0.8,0,1.1-0.2c0.6-0.2,1-0.5,1.2-1.1c0.2-0.6,0.2-1.2,0-1.7c-0.2-0.6-0.5-1-1.1-1.2
		c-0.4-0.1-0.8-0.2-1.2-0.2c-0.6,0-1.1,0-1.7,0C561.6,929.2,561.5,929.2,561.4,929.2z"/>
</g>
</svg>
